<svg height="512" viewBox="0 0 128 128" width="512" xmlns="http://www.w3.org/2000/svg"><g id="Circle_Grid" data-name="Circle Grid"><circle cx="64" cy="64" fill="#f7be56" r="64"/></g><g id="icon"><path d="m37.069 40.602h53.862v57.571h-53.862z" fill="#e1e6e9"/><path d="m76.994 53.752a1.212 1.212 0 0 1 -1.212-1.211v-17.058a11.782 11.782 0 1 0 -23.564 0v17.058a1.212 1.212 0 0 1 -2.423 0v-17.058a14.2 14.2 0 1 1 28.41 0v17.058a1.211 1.211 0 0 1 -1.211 1.211z" fill="#3a556a"/><path d="m76.082 66.9c-.558-6.636-9.576-7.473-11.7-1.834-.222.592-.544.592-.766 0-2.123-5.639-11.141-4.8-11.7 1.834-.41 4.88 1.5 11.672 12.082 17.661 10.585-5.989 12.494-12.781 12.084-17.661z" fill="#fe7058"/></g></svg>